<svg width="100" height="100" viewBox="0 0 100 100" fill="none" xmlns="http://www.w3.org/2000/svg">
    <path d="M40.625 6.25c-5.14 0-9.375 4.234-9.375 9.375v33.594l-2.344-.588c-.487-.634-.697-1.037-1.953-1.95-2-1.468-5.103-2.931-9.278-2.931-4.456 0-8.3 4.031-8.3 9.081v1.272l.878.975 20.997 21.19V93.75h50V41.112c0-4.406-3.112-8.25-7.422-9.178L50 26.76V15.625c0-5.14-4.234-9.375-9.375-9.375zm0 6.25c1.769 0 3.125 1.356 3.125 3.125v16.212l2.44.585 26.37 5.566c1.462.318 2.44 1.637 2.44 3.124v30.763H35.644L15.919 51.856c.256-1.319.793-1.856 1.756-1.856 2.822 0 4.566.853 5.666 1.66 1.096.806 1.365 1.368 1.365 1.368l.588 1.072 1.268.39 7.032 1.857 3.906.978v-41.7c0-1.769 1.356-3.125 3.125-3.125zM37.5 78.125H75V87.5H37.5v-9.375z" fill="#545147"/>
</svg>
